# xmcd CD database file
#
# Track frame offsets:
#	150
#	12839
#	29581
#	42345
#	54071
#	65627
#	80554
#	91570
#	105418
#	115444
#	131321
#	143746
#
# Disc length: 2034 seconds
#
# Revision: 0
# Processed by: cddbd v1.5.1PL0 Copyright (c) Steve Scherf et al.
# Submitted via: CDex 1.51
#
DISCID=9207f00c
DTITLE=Flying Burritos Bros - Too Much Honky Tonkin'
DYEAR=1999
DGENRE=Country
TTITLE0=Run To The Night
TTITLE1=She Belongs To Everyone But Me
TTITLE2=She's A Friend Of A Friend
TTITLE3=She's A Hell Of A Deal
TTITLE4=Somewhere Tonight
TTITLE5=Tell Me It Ain't So
TTITLE6=That's When You know It's Over
TTITLE7=Too Much Honky Tonkin'
TTITLE8=True Love Never Runs Dry
TTITLE9=When You're Giving Yourself To A Stranger
TTITLE10=Why Must The Ending Always Be So Sad
TTITLE11=You
EXTD=YEAR: 1999
EXTT0=
EXTT1=
EXTT2=
EXTT3=
EXTT4=
EXTT5=
EXTT6=
EXTT7=
EXTT8=
EXTT9=
EXTT10=
EXTT11=
PLAYORDER=
